<svg width="411" height="387" viewBox="0 0 411 387" fill="none" xmlns="http://www.w3.org/2000/svg">
<path d="M314.078 73.418H220.273C216.432 73.418 213.319 76.2618 213.319 79.7698V290.038C213.319 293.546 216.432 296.39 220.273 296.39H314.078C317.919 296.39 321.032 293.546 321.032 290.038V79.7698C321.032 76.2618 317.919 73.418 314.078 73.418Z" fill="#00F2FF" stroke="#263238" stroke-linecap="round" stroke-linejoin="round"/>
<path d="M317.432 112.451C317.053 112.451 316.689 112.314 316.42 112.068C316.152 111.823 316.001 111.491 316.001 111.144V93.6204C316.029 93.2903 316.193 92.9821 316.459 92.7574C316.725 92.5326 317.074 92.4077 317.437 92.4077C317.799 92.4077 318.148 92.5326 318.414 92.7574C318.68 92.9821 318.844 93.2903 318.872 93.6204V111.112C318.876 111.287 318.841 111.46 318.77 111.623C318.699 111.785 318.594 111.933 318.46 112.058C318.326 112.182 318.166 112.281 317.989 112.349C317.813 112.417 317.623 112.451 317.432 112.451Z" fill="#263238"/>
<path d="M317.432 128.684C317.053 128.684 316.689 128.546 316.42 128.301C316.152 128.056 316.001 127.723 316.001 127.377V117.584C316.029 117.254 316.193 116.946 316.459 116.721C316.725 116.496 317.074 116.371 317.437 116.371C317.799 116.371 318.148 116.496 318.414 116.721C318.68 116.946 318.844 117.254 318.872 117.584V127.377C318.87 127.724 318.717 128.056 318.447 128.301C318.177 128.546 317.812 128.684 317.432 128.684V128.684Z" fill="#263238"/>
<path d="M305.957 73.418H212.151C208.311 73.418 205.197 76.2618 205.197 79.7698V290.038C205.197 293.546 208.311 296.39 212.151 296.39H305.957C309.797 296.39 312.91 293.546 312.91 290.038V79.7698C312.91 76.2618 309.797 73.418 305.957 73.418Z" fill="#263238" stroke="#263238" stroke-linecap="round" stroke-linejoin="round"/>
<path d="M305.737 88.263H212.371V279.508H305.737V88.263Z" fill="#0B061C"/>
<path d="M245.19 82.1517H270.046" stroke="#00F2FF" stroke-width="3" stroke-linecap="round" stroke-linejoin="round"/>
<path d="M255.709 286.277C255.709 287.841 254.638 289.108 253.312 289.108C251.986 289.108 250.924 287.841 250.924 286.277C250.924 284.713 251.995 283.438 253.312 283.438C254.629 283.438 255.709 284.705 255.709 286.277Z" fill="#00F2FF"/>
<path d="M259.054 135.854C267.996 135.854 275.244 128.134 275.244 118.611C275.244 109.088 267.996 101.368 259.054 101.368C250.112 101.368 242.864 109.088 242.864 118.611C242.864 128.134 250.112 135.854 259.054 135.854Z" fill="#00F2FF"/>
<path d="M259.054 118.394C262.448 118.394 265.2 115.461 265.2 111.842C265.2 108.223 262.448 105.289 259.054 105.289C255.66 105.289 252.908 108.223 252.908 111.842C252.908 115.461 255.66 118.394 259.054 118.394Z" fill="#263238" stroke="#263238" stroke-linecap="round" stroke-linejoin="round"/>
<path d="M259.054 120.134C252.908 120.134 247.877 124.441 247.877 129.758C247.882 130.253 247.932 130.747 248.026 131.234C249.39 132.688 251.081 133.854 252.985 134.654C254.888 135.454 256.959 135.868 259.054 135.868C261.149 135.868 263.22 135.454 265.123 134.654C267.027 133.854 268.718 132.688 270.082 131.234C270.169 130.746 270.216 130.253 270.222 129.758C270.222 124.441 265.217 120.134 259.054 120.134Z" fill="#263238" stroke="#263238" stroke-linecap="round" stroke-linejoin="round"/>
<path d="M278.739 193.718H239.369C238.327 193.68 237.344 193.267 236.636 192.567C235.928 191.868 235.553 190.94 235.594 189.989V167.789C235.594 154.997 246.13 144.587 259.054 144.587C271.978 144.587 282.505 155.013 282.505 167.789V189.973C282.528 190.445 282.448 190.916 282.271 191.36C282.093 191.803 281.822 192.211 281.472 192.559C281.122 192.907 280.701 193.188 280.232 193.387C279.763 193.586 279.255 193.698 278.739 193.718V193.718ZM243.136 186.259H274.963V167.813C274.963 159.136 267.825 152.07 259.054 152.07C250.283 152.07 243.136 159.136 243.136 167.813V186.259Z" fill="#263238"/>
<path d="M286.386 178.568H231.722V225.806H286.386V178.568Z" fill="#00F2FF"/>
<path d="M267.017 211.089L262.961 202.179C263.858 201.56 264.583 200.757 265.079 199.834C265.575 198.912 265.826 197.897 265.815 196.87C265.815 193.317 262.908 190.454 259.317 190.454C255.726 190.454 252.829 193.325 252.829 196.87C252.815 197.896 253.065 198.912 253.56 199.834C254.054 200.756 254.778 201.559 255.674 202.179L251.626 211.089H267.017Z" fill="#263238" stroke="#263238" stroke-linecap="round" stroke-linejoin="round"/>
<path d="M242.398 268.256C242.482 268.312 242.584 268.343 242.688 268.344C242.763 268.344 242.836 268.327 242.902 268.295C242.968 268.263 243.024 268.216 243.066 268.16L305.737 190.293V188.818L242.328 267.646C242.289 267.691 242.259 267.741 242.242 267.796C242.224 267.851 242.218 267.908 242.225 267.964C242.231 268.021 242.25 268.076 242.28 268.126C242.31 268.176 242.35 268.22 242.398 268.256V268.256Z" fill="#00F2FF"/>
<path d="M293.129 116.317C293.092 116.363 293.065 116.416 293.05 116.471C293.035 116.527 293.032 116.585 293.042 116.642C293.052 116.699 293.074 116.753 293.107 116.802C293.14 116.851 293.183 116.893 293.234 116.926C293.337 116.993 293.465 117.021 293.59 117.003C293.714 116.985 293.826 116.923 293.902 116.83L305.737 102.13V100.686L293.129 116.317Z" fill="#00F2FF"/>
<path d="M212.371 218.147L289.74 122.043C289.814 121.95 289.845 121.833 289.826 121.719C289.806 121.604 289.737 121.502 289.635 121.434C289.532 121.366 289.404 121.338 289.279 121.356C289.154 121.374 289.042 121.436 288.967 121.53L212.406 216.671L212.371 218.147Z" fill="#00F2FF"/>
<path d="M235.128 277.736C235.203 277.734 235.277 277.718 235.343 277.687C235.41 277.657 235.469 277.613 235.515 277.559L239.905 272.138C239.942 272.091 239.969 272.039 239.984 271.983C239.999 271.927 240.002 271.869 239.992 271.813C239.982 271.756 239.96 271.702 239.927 271.653C239.894 271.604 239.85 271.561 239.799 271.528C239.696 271.461 239.569 271.434 239.444 271.452C239.32 271.47 239.207 271.532 239.132 271.624L234.742 277.038C234.704 277.083 234.677 277.136 234.661 277.191C234.646 277.246 234.642 277.304 234.651 277.361C234.66 277.418 234.681 277.472 234.713 277.521C234.746 277.57 234.788 277.613 234.839 277.647C234.921 277.707 235.023 277.738 235.128 277.736V277.736Z" fill="#00F2FF"/>
<path d="M305.737 205.884L254.286 269.812C254.234 269.877 254.203 269.953 254.196 270.034C254.189 270.114 254.206 270.194 254.246 270.266C254.286 270.337 254.347 270.397 254.423 270.439C254.498 270.481 254.585 270.502 254.673 270.501C254.748 270.503 254.822 270.487 254.89 270.457C254.957 270.426 255.015 270.381 255.059 270.325L305.737 207.352V205.884Z" fill="#00F2FF"/>
<path d="M125.036 116.036C125.907 114.274 126.327 112.355 126.265 110.422C126.265 106.837 121.515 104.76 115.931 104.191C110.347 103.621 107.871 105.699 108.696 107.022C109.554 108.113 110.601 109.069 111.796 109.853C111.796 109.853 106.212 107.022 102.489 109.291C98.7662 111.561 104.148 110.615 103.112 112.876C102.076 115.138 96.2903 114.2 94.8416 120.239C93.3929 126.278 97.5282 132.325 93.8055 134.972C90.0828 137.618 78.8795 134.025 75.6134 140.634C72.3472 147.242 76.983 150.177 69.1337 154.332C61.2844 158.486 55.5598 162.544 57.8339 172.738C60.1079 182.931 67.5533 186.5 82.2335 182.899C96.9136 179.298 95.8776 171.19 100.671 162.849C105.465 154.508 112.876 156.241 115.15 151.517C117.424 146.793 114.526 141.131 114.737 136.784C114.948 132.437 119.698 131.499 121.559 126.358C123.42 121.217 125.036 116.036 125.036 116.036Z" fill="#263238" stroke="#263238" stroke-linecap="round" stroke-linejoin="round"/>
<path d="M59.5459 172.545C59.1609 173.255 58.9653 174.039 58.9752 174.831" stroke="white" stroke-width="0.5" stroke-linecap="round" stroke-linejoin="round"/>
<path d="M117.099 112.291C117.099 112.291 114.518 109.564 119.487 110.831C125.747 112.435 118.398 119.052 115.571 120.383C109.899 123.038 102.401 122.188 98.0111 127.016C94.025 131.379 99.4072 135.926 97.019 139.383C94.6309 142.839 85.0694 140.834 81.8911 144.997C78.7127 149.159 87.6595 158.093 78.502 163.001C71.8819 166.554 64.6296 167.918 61.1264 170.733" stroke="white" stroke-width="0.5" stroke-linecap="round" stroke-linejoin="round"/>
<path d="M102.252 128.427C101.709 129.587 101.545 130.865 101.778 132.108C102.568 135.196 107.151 141.019 102.972 144.291C98.7926 147.563 91.6193 147.378 90.434 151.212C89.2487 155.046 91.6281 165.576 87.6507 170.46C83.6734 175.344 75.9031 175.007 71.7238 178.28C67.5445 181.552 68.1416 183.372 68.1416 183.372" stroke="white" stroke-width="0.5" stroke-linecap="round" stroke-linejoin="round"/>
<path d="M104.359 124.834C103.997 125.301 103.663 125.786 103.358 126.286" stroke="white" stroke-width="0.5" stroke-linecap="round" stroke-linejoin="round"/>
<path d="M127.714 172.257L128.724 179.475C128.724 179.475 133.992 184.287 137.864 187.262C141.736 190.237 151.657 196.533 151.657 196.533L146.626 197.84C146.626 197.84 130.181 188.938 126.932 188.216C123.684 187.495 121.252 183.212 120.242 181.913C119.232 180.613 125.071 170.957 127.714 172.257Z" fill="white" stroke="#263238" stroke-linecap="round" stroke-linejoin="round"/>
<path d="M137.758 289.693C137.758 289.693 142.728 293.527 144.782 294.81C146.837 296.093 149.234 296.671 148.856 297.368C148.479 298.066 147.451 298.764 142.614 298.17C137.776 297.577 136.38 296.077 135.484 295.845C134.589 295.612 132.429 296.198 130.778 295.267C129.127 294.337 131.744 288.795 131.744 288.795C132.469 289.569 133.47 290.084 134.571 290.249C135.672 290.413 136.801 290.216 137.758 289.693Z" fill="white" stroke="#263238" stroke-linecap="round" stroke-linejoin="round"/>
<path d="M148.839 297.368C148.842 297.331 148.842 297.294 148.839 297.256C146.045 297.491 143.229 297.249 140.533 296.542C137.407 295.869 136.485 294.353 133.509 294.353C132.341 294.363 131.179 294.189 130.076 293.84C130.044 294.107 130.084 294.378 130.192 294.628C130.301 294.878 130.475 295.1 130.699 295.275C132.35 296.206 134.518 295.62 135.405 295.853C136.292 296.085 137.697 297.601 142.535 298.178C147.372 298.756 148.452 298.066 148.839 297.368Z" fill="white" stroke="#263238" stroke-linecap="round" stroke-linejoin="round"/>
<path d="M111.743 134.691C111.743 134.691 112.7 140.577 111.471 142.951C110.242 145.325 106.396 145.582 103.112 146.087C99.8286 146.592 92.2866 149.215 93.1031 155.976C93.9197 162.737 103.385 177.381 103.385 181.512C103.385 185.642 100.505 187.767 97.3526 195.779C94.2006 203.791 94.6133 218.692 95.5966 228.332C96.3174 234.695 97.6932 240.981 99.7057 247.107C99.7057 247.107 91.8037 258.752 88.2917 263.757C84.7797 268.761 72.4877 290.551 72.4877 290.551C72.4877 290.551 72.4877 291.297 74.4017 291.803C75.7483 292.102 77.1415 292.186 78.5195 292.051C78.5195 292.051 102.085 266.139 106.475 261.76C110.865 257.381 114.974 249.73 115.518 246.233C116.063 242.736 115.387 221.323 115.387 221.323C115.387 221.323 120.312 232.086 124.167 237.595C126.505 240.967 128.65 244.447 130.594 248.021C130.054 252.553 130.054 257.124 130.594 261.655C131.551 267.911 130.743 288.009 131.7 289.637C132.657 291.265 136.371 290.584 137.196 289.838C138.022 289.092 138.408 284.224 138.408 284.224C138.408 284.224 140.05 268.986 141.042 261.816C142.034 254.646 143.676 248.543 143.105 246.915C142.535 245.287 139.128 227.883 136.52 219.647C133.913 211.41 125.984 195.988 124.228 191.986C122.472 187.984 121.48 184.343 121.761 183.091C122.042 181.84 127.38 174.334 128.785 172.329C129.586 170.969 130.028 169.458 130.075 167.915C130.122 166.372 129.774 164.84 129.057 163.442C127.415 160.186 129.057 155.799 128.785 153.177C128.513 150.554 124.263 149.416 122.068 148.421C119.873 147.427 119.048 145.165 119.048 143.288C119.182 141.707 119.6 140.157 120.286 138.701C120.286 138.701 113.525 134.691 111.743 134.691Z" fill="white" stroke="#263238" stroke-linecap="round" stroke-linejoin="round"/>
<path d="M128.355 161.47C127.633 159.794 127.032 158.076 126.555 156.329" stroke="#263238" stroke-linecap="round" stroke-linejoin="round"/>
<path d="M110.558 175.408C110.558 175.408 113.034 175.906 117.994 173.644" stroke="#263238" stroke-linecap="round" stroke-linejoin="round"/>
<path d="M136.547 219.566C134.062 211.675 126.695 197.263 124.492 192.507C113.956 196.116 104.104 193.036 99.4774 191.047C98.8101 192.379 98.0902 193.919 97.3526 195.779C94.2006 203.799 94.6133 218.692 95.5966 228.332C96.3174 234.695 97.6932 240.981 99.7057 247.107C99.7057 247.107 91.8037 258.752 88.2917 263.757C84.7797 268.761 72.4877 290.551 72.4877 290.551C72.4877 290.551 72.4877 291.297 74.4017 291.803C75.7483 292.102 77.1415 292.186 78.5195 292.051C78.5195 292.051 102.085 266.139 106.475 261.76C110.865 257.381 114.974 249.73 115.518 246.233C116.063 242.736 115.387 221.323 115.387 221.323C115.387 221.323 120.312 232.086 124.167 237.595C126.505 240.967 128.65 244.447 130.594 248.021C130.054 252.553 130.054 257.124 130.594 261.655C131.551 267.911 130.743 288.009 131.7 289.637C132.657 291.265 136.371 290.584 137.196 289.838C138.022 289.092 138.408 284.224 138.408 284.224C138.408 284.224 140.05 268.986 141.042 261.816C142.034 254.646 143.676 248.543 143.105 246.915C142.535 245.287 139.154 227.827 136.547 219.566Z" fill="#263238" stroke="#263238" stroke-linecap="round" stroke-linejoin="round"/>
<path d="M190.227 211.619V209.983H191.729V197.135H190.227H175.407H173.905V209.983H175.407V211.619H173.897V214.602H179.683V213.6H185.952V214.602H191.738V211.619H190.227Z" fill="#00F2FF" stroke="#263238" stroke-linecap="round" stroke-linejoin="round"/>
<path d="M94.4377 193.293H197.831C198.245 193.293 198.643 193.443 198.936 193.711C199.229 193.979 199.394 194.342 199.394 194.72V197.592C199.394 197.97 199.229 198.333 198.936 198.601C198.643 198.869 198.245 199.019 197.831 199.019H94.4377V193.285V193.293Z" fill="#00F2FF" stroke="#263238" stroke-linecap="round" stroke-linejoin="round"/>
<path d="M168.646 192.435H162.351C161.871 192.435 161.482 192.79 161.482 193.229V199.091C161.482 199.53 161.871 199.885 162.351 199.885H168.646C169.126 199.885 169.515 199.53 169.515 199.091V193.229C169.515 192.79 169.126 192.435 168.646 192.435Z" fill="#00F2FF" stroke="#263238" stroke-linecap="round" stroke-linejoin="round"/>
<path d="M97.6725 198.572C99.1293 190.446 93.0987 182.78 84.2028 181.449C75.3068 180.118 66.9143 185.627 65.4576 193.753C64.0008 201.879 70.0314 209.545 78.9273 210.876C87.8233 212.206 96.2158 206.698 97.6725 198.572Z" fill="#00F2FF" stroke="#263238" stroke-linecap="round" stroke-linejoin="round"/>
<path d="M84.9202 196.124C85.8664 195.71 86.6694 195.066 87.241 194.262C87.8126 193.459 88.1305 192.527 88.16 191.569C88.16 188.641 85.2099 186.267 81.5662 186.267C77.9225 186.267 74.9724 188.673 74.9724 191.569C74.9999 192.527 75.3171 193.46 75.8889 194.264C76.4606 195.068 77.2648 195.712 78.2122 196.124C77.2653 196.539 76.4619 197.185 75.8904 197.99C75.3189 198.795 75.0012 199.728 74.9724 200.687C74.9724 203.615 77.9225 205.989 81.5662 205.989C85.2099 205.989 88.16 203.583 88.16 200.687C88.1292 199.729 87.8108 198.796 87.2395 197.991C86.6681 197.187 85.8659 196.541 84.9202 196.124V196.124Z" fill="white" stroke="#263238" stroke-linecap="round" stroke-linejoin="round"/>
<path d="M148.435 199.148C148.435 199.148 153.545 201.12 155.125 201.12C156.705 201.12 158.532 199.669 159.436 197.912C160.34 196.156 160.314 195.322 159.778 195.739L158.646 196.541C158.646 196.541 159.524 194.785 158.532 194.993C157.845 195.202 157.274 195.648 156.943 196.236C156.943 196.236 156.828 194.68 155.924 195.434C155.326 195.929 154.792 196.487 154.335 197.094C154.335 197.094 154.221 195.129 153.65 195.643C153.079 196.156 150.937 198.955 150.937 198.955L148.435 199.148Z" fill="white" stroke="#263238" stroke-linecap="round" stroke-linejoin="round"/>
<path d="M154.335 197.078C154.335 197.078 153.992 199.565 152.298 199.982Z" fill="white"/>
<path d="M154.335 197.078C154.335 197.078 153.992 199.565 152.298 199.982" stroke="#263238" stroke-linecap="round" stroke-linejoin="round"/>
<path d="M156.942 196.252C156.942 196.252 156.064 200.182 154.677 200.808Z" fill="white"/>
<path d="M156.942 196.252C156.942 196.252 156.064 200.182 154.677 200.808" stroke="#263238" stroke-linecap="round" stroke-linejoin="round"/>
<path d="M158.646 196.557C158.193 197.991 157.584 199.38 156.828 200.703Z" fill="white"/>
<path d="M158.646 196.557C158.193 197.991 157.584 199.38 156.828 200.703" stroke="#263238" stroke-linecap="round" stroke-linejoin="round"/>
<path d="M121.743 148.18C120.859 147.635 120.143 146.891 119.663 146.021C119.184 145.15 118.957 144.182 119.004 143.208C119.162 141.652 119.594 140.13 120.286 138.701C120.286 138.701 113.569 134.691 111.787 134.691C111.787 134.691 112.744 140.577 111.515 142.951C111.112 143.69 110.455 144.287 109.645 144.652C111.268 148.644 113.468 152.42 116.186 155.88C118.653 158.711 119.856 152.744 121.743 148.18Z" fill="white" stroke="#263238" stroke-linecap="round" stroke-linejoin="round"/>
<path d="M101.014 146.897C99.3384 147.159 97.7524 147.772 96.3811 148.689C95.0097 149.607 93.8905 150.802 93.1119 152.182C90.4076 156.946 78.5898 178.568 79.5995 179.859C85.3416 187.238 106.229 192.547 108.354 194.488C110.478 196.517 112.81 198.357 115.317 199.982C117.441 201.217 121.682 200.687 122.455 200.335C123.227 199.982 123.807 198.394 122.455 198.394C121.938 198.4 121.435 198.244 121.029 197.952C120.623 197.66 120.339 197.25 120.225 196.79C120.031 196.084 122.349 197.495 123.508 196.966C124.667 196.437 120.918 194.504 119.759 193.622C118.6 192.74 117.634 191.513 116.089 191.513C114.544 191.513 111.638 191.513 111.638 191.513C111.638 191.513 104.526 186.805 100.224 183.3C96.8761 180.541 93.2246 178.106 89.3277 176.034L102.366 156.441" fill="white"/>
<path d="M101.014 146.897C99.3384 147.159 97.7524 147.772 96.3811 148.689C95.0097 149.607 93.8905 150.802 93.1119 152.182C90.4076 156.946 78.5898 178.568 79.5995 179.859C85.3416 187.238 106.229 192.547 108.354 194.488C110.478 196.517 112.81 198.357 115.317 199.982C117.441 201.217 121.682 200.687 122.455 200.335C123.227 199.982 123.807 198.394 122.455 198.394C121.938 198.4 121.435 198.244 121.029 197.952C120.623 197.66 120.339 197.25 120.225 196.79C120.031 196.084 122.349 197.495 123.508 196.966C124.667 196.437 120.918 194.504 119.759 193.622C118.6 192.74 117.634 191.513 116.089 191.513C114.544 191.513 111.638 191.513 111.638 191.513C111.638 191.513 104.526 186.805 100.224 183.3C96.8761 180.541 93.2246 178.106 89.3277 176.034L102.366 156.441" stroke="#263238" stroke-linecap="round" stroke-linejoin="round"/>
<path d="M119.75 193.63C118.591 192.748 117.626 191.521 116.08 191.521C114.535 191.521 111.629 191.521 111.629 191.521C111.629 191.521 104.517 186.813 100.215 183.308C96.8673 180.549 93.2158 178.114 89.3189 176.042L94.5343 168.198C91.868 166.724 88.818 165.929 85.7016 165.897C82.1896 172.585 79.0376 179.194 79.5556 179.892C85.2977 187.27 106.185 192.579 108.31 194.52C110.434 196.549 112.766 198.389 115.273 200.014C117.397 201.249 121.638 200.719 122.411 200.367C123.183 200.014 123.763 198.426 122.411 198.426C121.894 198.432 121.391 198.276 120.985 197.984C120.579 197.692 120.295 197.282 120.181 196.822C119.987 196.116 122.305 197.527 123.464 196.998C124.623 196.469 120.909 194.52 119.75 193.63Z" fill="white" stroke="#263238" stroke-linecap="round" stroke-linejoin="round"/>
<path d="M126.818 126.053C126.133 124.802 126.133 123.8 126.406 122.043C126.678 120.287 125.036 116.028 125.036 116.028C123.359 118.675 118.512 120.247 116.37 120.84C114.008 121.498 117.459 122.99 117.09 124.987C116.721 126.984 112.006 128.138 112.006 128.138C112.006 128.138 110.628 125.548 108.714 125.548C106.8 125.548 105.439 129.558 106.528 131.683C106.811 132.272 107.306 132.755 107.929 133.054C108.553 133.353 109.269 133.449 109.961 133.327C109.961 133.327 109.829 137.089 112.428 138.212C115.201 139.42 118.094 140.384 121.067 141.091C122.709 141.339 124.351 140.594 125.036 138.34C125.572 136.069 125.938 133.767 126.133 131.451C127.283 130.764 128.341 129.956 129.285 129.045C129.944 128.179 127.503 127.304 126.818 126.053Z" fill="white" stroke="#263238" stroke-linecap="round" stroke-linejoin="round"/>
<path d="M124.149 126.109C124.149 126.799 123.903 127.353 123.605 127.353C123.306 127.353 123.06 126.799 123.06 126.109C123.06 125.42 123.306 124.866 123.605 124.866C123.903 124.866 124.149 125.42 124.149 126.109Z" fill="#263238"/>
<path d="M121.787 124.04C121.787 124.04 123.245 122.541 124.334 122.877" stroke="#263238" stroke-linecap="round" stroke-linejoin="round"/>
<path d="M124.334 134.322C123.676 134.503 122.977 134.525 122.307 134.384C121.638 134.243 121.02 133.945 120.514 133.52" stroke="#263238" stroke-linecap="round" stroke-linejoin="round"/>
<path d="M72.5491 290.552C72.5491 290.552 69.2742 296.55 69.3971 297.369C69.52 298.187 76.0172 302.485 79.0551 303.993C82.093 305.501 87.5893 305.741 87.2029 303.648C86.8166 301.555 81.6013 300.159 80.3282 297.016C79.6502 295.389 79.0641 293.732 78.5722 292.051C76.4499 292.08 74.3619 291.56 72.5491 290.552V290.552Z" fill="white" stroke="#263238" stroke-linecap="round" stroke-linejoin="round"/>
<path d="M87.2205 303.68C84.8829 303.966 82.5042 303.658 80.3458 302.79C75.6309 300.921 71.0653 297.104 69.8098 296.021C69.5868 296.454 69.4443 296.917 69.3883 297.393C69.52 298.195 76.0085 302.509 79.0463 304.017C82.0842 305.525 87.5366 305.733 87.2205 303.68Z" fill="white" stroke="#263238" stroke-linecap="round" stroke-linejoin="round"/>
</svg>
